<svg xmlns="http://www.w3.org/2000/svg" viewBox="0 0 200 600" fill="none">
  <!-- Stem -->
  <path d="M100 580 Q 98 400 100 200 Q 102 100 100 40" stroke="#3a7a5f" stroke-width="1.5" stroke-linecap="round" opacity="0.7"/>

  <!-- Barbs (left side) -->
  <g stroke="#2d6a4f" stroke-width="1" opacity="0.55" stroke-linecap="round">
    <path d="M99 540 Q 80 538 60 545"/>
    <path d="M99 510 Q 78 505 56 512"/>
    <path d="M99 480 Q 75 472 50 478"/>
    <path d="M100 450 Q 73 440 45 445"/>
    <path d="M100 420 Q 70 408 40 412"/>
    <path d="M100 390 Q 68 376 35 380"/>
    <path d="M100 360 Q 66 344 30 348"/>
    <path d="M100 330 Q 64 312 25 316"/>
    <path d="M100 300 Q 62 280 22 286"/>
    <path d="M100 270 Q 60 248 18 254"/>
    <path d="M100 240 Q 60 218 18 224"/>
    <path d="M100 210 Q 60 188 18 196"/>
  </g>

  <!-- Barbs (right side) -->
  <g stroke="#2d6a4f" stroke-width="1" opacity="0.55" stroke-linecap="round">
    <path d="M101 540 Q 120 538 140 545"/>
    <path d="M101 510 Q 122 505 144 512"/>
    <path d="M101 480 Q 125 472 150 478"/>
    <path d="M100 450 Q 127 440 155 445"/>
    <path d="M100 420 Q 130 408 160 412"/>
    <path d="M100 390 Q 132 376 165 380"/>
    <path d="M100 360 Q 134 344 170 348"/>
    <path d="M100 330 Q 136 312 175 316"/>
    <path d="M100 300 Q 138 280 178 286"/>
    <path d="M100 270 Q 140 248 182 254"/>
    <path d="M100 240 Q 140 218 182 224"/>
    <path d="M100 210 Q 140 188 182 196"/>
  </g>

  <!-- Eye of the feather -->
  <!-- Outer green -->
  <ellipse cx="100" cy="120" rx="56" ry="76" fill="#1a5d4a" opacity="0.55"/>
  <!-- Mid blue/teal -->
  <ellipse cx="100" cy="115" rx="40" ry="58" fill="#0f6a8b" opacity="0.75"/>
  <!-- Inner bronze/gold ring -->
  <ellipse cx="100" cy="110" rx="26" ry="40" fill="#a85a1a" opacity="0.85"/>
  <!-- Deep blue eye center -->
  <ellipse cx="100" cy="106" rx="14" ry="24" fill="#0a2a5e"/>
  <!-- Bright cyan highlight -->
  <ellipse cx="100" cy="102" rx="6" ry="11" fill="#1fb6c7" opacity="0.95"/>
  <!-- Tiny gold spark -->
  <ellipse cx="100" cy="98" rx="2" ry="4" fill="#f3c969"/>

  <!-- Top wispy barbs above the eye -->
  <g stroke="#2d6a4f" stroke-width="1" opacity="0.5" stroke-linecap="round">
    <path d="M100 40 Q 95 30 88 22"/>
    <path d="M100 40 Q 100 28 100 18"/>
    <path d="M100 40 Q 105 30 112 22"/>
  </g>
</svg>
